<?xml version='1.0' encoding='UTF-8'?>
<svg xmlns:inkscape="http://www.inkscape.org/namespaces/inkscape" xmlns:sodipodi="http://sodipodi.sourceforge.net/DTD/sodipodi-0.dtd" xmlns="http://www.w3.org/2000/svg" xmlns:svg="http://www.w3.org/2000/svg" xmlns:rdf="http://www.w3.org/1999/02/22-rdf-syntax-ns#" xmlns:cc="http://creativecommons.org/ns#" xmlns:dc="http://purl.org/dc/elements/1.1/" width="824" height="824" viewBox="0 0 824 824" version="1.1" id="svg22" sodipodi:docname="plain.svg" inkscape:version="1.4.2 (ebf0e940d0, 2025-05-08)" inkscape:export-filename="logo.png" inkscape:export-xdpi="96" inkscape:export-ydpi="96">
  <sodipodi:namedview id="namedview22" pagecolor="#ffffff" bordercolor="#000000" borderopacity="0.25" inkscape:showpageshadow="2" inkscape:pageopacity="0.0" inkscape:pagecheckerboard="false" inkscape:deskcolor="#d1d1d1" showguides="true" inkscape:zoom="0.22627417" inkscape:cx="539.16892" inkscape:cy="828.64076" inkscape:window-width="1278" inkscape:window-height="1408" inkscape:window-x="0" inkscape:window-y="0" inkscape:window-maximized="0" inkscape:current-layer="g22"/>
  <defs id="defs19"><style id="style1">
      .a {
        fill: #06283d;
      }

      .b {
        fill: url(#a);
      }

      .c {
        fill: #a59678;
      }

      .d {
        fill: url(#b);
      }
    </style>
    <radialGradient id="a-3" cx="103.55" cy="103.55" fx="14.832241" fy="15.612816" r="196.89" gradientUnits="userSpaceOnUse" gradientTransform="matrix(4.9444712,0,0,4.9444712,-2.9648209e-5,1.824029e-6)" inkscape:label="a">
      <stop offset="0" stop-color="#4b475b" id="stop4" style="stop-color:#4c425d;stop-opacity:1;"/>
      <stop offset="0.56898302" stop-color="#4b475b" id="stop13" style="stop-color:#75678f;stop-opacity:1;"/>
      <stop offset="1" stop-color="#bcb5d9" id="stop10" style="stop-color:#bab3d1;stop-opacity:1;"/>
    </radialGradient>
    <linearGradient id="b-1" x1="61.343052" y1="27.19577" x2="135.23416" y2="177.1032" gradientUnits="userSpaceOnUse" gradientTransform="matrix(0.72185568,0,0,0.73037896,-0.88729692,-1.9750596)" spreadMethod="reflect" inkscape:label="b">
      <stop offset="0" stop-color="#526a77" id="stop2" style="stop-color:#406379;stop-opacity:1;"/>
      <stop offset="0.54454893" stop-color="#526a77" id="stop12" style="stop-color:#5b899a;stop-opacity:1;"/>
      <stop offset="1" stop-color="#94d1d6" id="stop19" style="stop-color:#72b5d1;stop-opacity:1;"/>
    </linearGradient>
    <radialGradient xmlns:xlink="http://www.w3.org/1999/xlink" inkscape:collect="always" xlink:href="#a-3" id="radialGradient25" gradientUnits="userSpaceOnUse" gradientTransform="matrix(-0.58778896,1.4487093,-2.0536813,-0.83324607,97.059234,-193.37168)" cx="122.9096" cy="-190.81799" fx="122.9096" fy="-190.81799" r="476.82007" spreadMethod="reflect"/>
  </defs>
  <title id="title19">Artboard 1</title>
  <metadata id="metadata13">
    <rdf:RDF>
      <cc:Work rdf:about="">
        <dc:title>Artboard 1</dc:title>
      </cc:Work>
    </rdf:RDF>
  </metadata>
  <g id="g22" inkscape:label="logo">
    <rect class="b" x="0" y="0" width="824" height="824" rx="187.33615" id="rect20-8" style="fill:#ccb98f;fill-opacity:1;stroke-width:0.217168" inkscape:label="outer-border"/>
    <rect class="b" x="28.308777" y="28.308777" width="767.38245" height="767.38245" rx="159.38022" id="rect25" style="fill:url(#radialGradient25);fill-opacity:1;stroke-width:0.202246" inkscape:label="background"/>
    <g id="g32" transform="matrix(5.4795874,0,0,5.4795874,-10.939427,10.822515)" style="display:inline;stroke-width:0.0368641;stroke-dasharray:none" inkscape:label="content">
      <g id="g7" inkscape:label="big gear" transform="matrix(0.16496775,-0.03781026,0.03781026,0.16496775,-9.6979348,18.680114)" style="stroke-width:1.07829">
        <path id="path11" style="display:inline;fill:#1f0b26;fill-opacity:1;stroke:none;stroke-width:21.5658;stroke-dasharray:none;stroke-opacity:1" class="st0" d="m 449.08594,353.48633 c -6.26498,-1.6e-4 -12.10137,2.56569 -17.8494,4.75215 -9.10476,3.48623 -18.29747,6.76374 -27.29785,10.5363 -11.58512,5.78737 -18.82299,19.24056 -17.11287,32.09945 1.10256,6.56073 2.78689,13.00658 4.12054,19.5225 2.06215,9.4576 4.1243,18.9152 6.18645,28.3728 -7.53658,7.07073 -15.06102,14.14692 -22.61719,21.18164 -15.5074,-4.44948 -30.99119,-8.98463 -46.53725,-13.29237 -12.25243,-2.79618 -25.85137,2.68034 -32.87196,13.07634 -2.62362,3.98116 -4.34157,8.45987 -6.32187,12.77503 -3.86778,8.66913 -7.97915,17.23584 -11.52324,26.0443 -4.11371,12.43782 0.49186,27.26172 11.0814,35.0254 5.77792,3.91845 11.72835,7.574 17.59252,11.36119 7.84395,5.00257 15.67754,10.02113 23.514,15.0355 -0.33179,10.32744 -0.64152,20.6556 -0.99219,30.98242 -13.98539,7.78335 -28.01702,15.48945 -41.93345,23.39003 -11.09335,6.97734 -16.85878,21.39264 -13.60183,34.09137 1.25035,4.78073 3.27264,9.30773 4.95898,13.94181 3.03674,7.9301 5.87363,15.94135 9.18167,23.76421 2.46548,5.48595 6.80591,10.01573 11.88682,13.17001 6.9147,4.27189 15.50807,5.95552 23.45911,4.0412 8.46306,-1.78157 16.84925,-3.69772 25.30274,-5.521 6.52961,-1.43382 13.05612,-2.84894 19.59166,-4.27411 7.07567,7.52721 14.13935,15.06345 21.19922,22.60547 -4.38402,15.39275 -8.89154,30.75048 -13.18486,46.16805 -3.13809,12.80187 2.87828,27.24737 14.17178,34.04113 4.89043,2.88788 10.24771,4.84023 15.36113,7.27919 7.42346,3.32705 14.77911,6.82499 22.33698,9.83695 12.60861,4.14066 27.63786,-0.71387 35.28694,-11.59584 4.26553,-6.33698 8.23524,-12.86497 12.40037,-19.26823 4.55362,-7.12771 9.10724,-14.25542 13.66087,-21.38313 10.32504,0.3345 20.65079,0.64851 30.97461,1.01953 7.66003,13.74437 15.25473,27.52647 22.97015,41.23908 4.69541,7.99646 13.26688,13.38801 22.36378,14.81219 5.10708,0.83683 10.40552,0.30508 15.26635,-1.46078 4.91676,-1.6642 9.70429,-3.68119 14.58631,-5.44166 7.10375,-2.72882 14.3071,-5.22756 21.25266,-8.34616 11.41858,-6.01806 18.37691,-19.56154 16.40993,-32.34845 -1.31168,-7.07655 -3.05584,-14.06511 -4.51864,-21.11111 -1.90576,-8.73677 -3.81151,-17.47353 -5.71726,-26.21029 7.54094,-7.07493 15.08295,-14.13398 22.63476,-21.19727 15.46361,4.43878 30.90971,8.94338 46.40434,13.26943 12.64956,2.96931 26.79863,-2.95158 33.61616,-14.00127 2.44449,-4.03542 4.15358,-8.45213 6.12013,-12.72714 3.44163,-7.66399 7.05828,-15.35747 10.30897,-23.1471 3.27931,-7.56816 2.91176,-16.43224 -0.21687,-23.98574 -2.51787,-6.10279 -6.96654,-11.42079 -12.66074,-14.79398 -12.81741,-8.24814 -25.67392,-16.42896 -38.50558,-24.65521 0.33281,-10.32149 0.64646,-20.64359 0.98633,-30.96485 14.00514,-7.78994 28.05529,-15.50124 41.99286,-23.40984 10.64815,-6.73854 16.36021,-20.31162 13.86186,-32.64595 -0.6219,-3.27183 -1.882,-6.26558 -3.00881,-9.37742 -3.34387,-8.58458 -6.43932,-17.2649 -9.85037,-25.82287 -1.12804,-2.70064 -2.11513,-5.49646 -3.83621,-7.89403 -6.6804,-9.90904 -19.27254,-15.62292 -31.12222,-13.63114 -10.6906,2.18209 -21.32098,4.64666 -31.99117,6.9266 -4.97495,1.08436 -9.9499,2.16873 -14.92485,3.25309 -7.0687,-7.54207 -14.13869,-15.06909 -21.17969,-22.63672 4.4494,-15.4966 8.97497,-30.97278 13.29022,-46.50604 2.94365,-12.84455 -3.22155,-27.211 -14.61179,-33.86166 -4.48456,-2.60487 -9.34721,-4.38749 -14.00406,-6.61154 -7.58286,-3.39517 -15.09431,-6.96034 -22.79923,-10.07258 -8.5855,-3.07153 -18.44438,-1.83678 -26.28139,2.71002 -4.58316,2.64301 -8.46454,6.47512 -11.14052,11.04178 -8.19546,12.73014 -16.29978,25.51768 -24.4962,38.24729 -10.32093,-0.33247 -20.64267,-0.63982 -30.96289,-0.99414 -7.79123,-14.01288 -15.50864,-28.06788 -23.41822,-42.01324 -5.79692,-9.06264 -16.51114,-14.64775 -27.24193,-14.41059 z"/>
        <path class="st0" d="M 718.26989,651.71486 675.94932,624.6899 c -2.7395,-1.49716 -4.37977,-4.38402 -4.28015,-7.50341 l 1.3043,-42.06109 c 0.0842,-3.11459 1.89508,-5.90904 4.72498,-7.22163 l 43.52389,-24.1744 c 6.58058,-3.10269 9.69141,-10.75061 7.11361,-17.56504 l -11.77214,-31.11058 c -2.56682,-6.80948 -9.96197,-10.51301 -16.94552,-8.4573 l -48.63503,10.65506 c -2.97621,0.88292 -6.21302,-0.003 -8.3322,-2.26706 l -28.81362,-30.68857 c -2.13509,-2.25819 -2.80408,-5.55577 -1.76764,-8.46358 l 13.86754,-48.24446 c 2.4702,-6.86512 -0.74602,-14.4647 -7.37585,-17.45632 l -30.32646,-13.68435 c -6.63958,-2.99602 -14.46702,-0.37971 -17.96909,6.01979 l -27.02001,42.3096 c -1.48248,2.73293 -4.38897,4.39074 -7.49367,4.28456 l -42.0862,-1.30391 c -3.11085,-0.0958 -5.89475,-1.92675 -7.22269,-4.75186 l -24.17016,-43.5073 c -3.08433,-6.5855 -10.73789,-9.68712 -17.56327,-7.11428 l -31.10619,11.76239 c -6.81386,2.57657 -10.49052,9.97065 -8.46345,16.95594 l 10.65683,48.63436 c 0.87073,2.97072 0.002,6.20205 -2.27308,8.31629 l -30.67443,28.80827 c -2.25163,2.14979 -5.53384,2.81397 -8.45262,1.77258 l -48.28108,-13.87085 c -6.84496,-2.45964 -14.44454,0.75656 -17.4411,7.39737 l -13.67886,30.31427 c -2.99162,6.62984 -0.38399,14.47976 5.99853,17.96097 l 42.34622,27.02334 c 2.71208,1.49945 4.3814,4.40968 4.2637,7.51065 l -1.3043,42.06108 c -0.0892,3.12556 -1.9361,5.91548 -4.7409,7.22766 l -43.51787,24.19031 c -6.58002,3.10146 -9.68095,10.72746 -7.1136,17.56503 l 11.76238,31.10619 c 2.58754,6.81883 9.98162,10.49548 16.96021,8.45073 l 48.61983,-10.67659 c 2.98592,-0.8492 6.2063,0.0145 8.33095,2.29583 l 28.83447,30.67157 c 2.12465,2.28135 2.80849,5.54604 1.74801,8.48113 l -13.85658,48.2494 c -2.46524,6.85416 0.73572,14.46152 7.3753,17.45754 l 30.32647,13.68436 c 6.6408,2.99656 14.46155,0.36258 17.96964,-6.02102 l 26.99808,-42.31949 c 1.5088,-2.73279 4.40913,-4.38018 7.52548,-4.2966 l 42.07631,1.32583 c 3.10539,0.0786 5.90571,1.93171 7.22273,4.72256 l 24.17562,43.52443 c 3.08433,6.5855 10.74567,9.70237 17.54857,7.12085 l 31.11594,-11.758 c 6.83649,-2.59422 10.49175,-9.9701 8.46346,-16.95593 l -10.66724,-48.64053 c -0.85977,-2.96577 0.0101,-6.19656 2.29338,-8.33205 l 30.67442,-28.80827 c 2.26916,-2.13015 5.52289,-2.81892 8.46359,-1.76764 l 48.26037,13.86152 c 6.84548,2.48772 14.4555,-0.75163 17.44712,-7.38147 l 13.67886,-30.31427 c 2.9962,-6.64244 0.37905,-14.46879 -6.00522,-17.97865 z" id="path1-3-5" style="display:inline;fill:#ccb98f;fill-opacity:1;stroke:none;stroke-width:21.5658;stroke-dasharray:none;stroke-opacity:1" sodipodi:nodetypes="ccccccccccccccsscccccccsccccccssccccccccccccccssccccccccccccccscc"/>
        <path id="path24" style="display:inline;fill:#629ab3;fill-opacity:1;stroke:none;stroke-width:21.5658;stroke-dasharray:none;stroke-opacity:1" class="st0" d="m 445.01367,393.32031 c -6.60774,2.48024 -13.21494,4.96078 -19.79883,7.50391 3.4847,15.98446 7.06305,31.96881 10.39837,47.96651 1.20541,9.51528 -3.07179,19.36728 -10.4843,25.35966 -10.33996,9.67676 -20.58613,19.45866 -31.07493,28.973 -7.6121,5.87803 -18.30356,7.16682 -27.24539,3.80239 -14.0778,-4.05111 -28.15715,-8.09311 -42.24218,-12.11914 -3.20721,7.07077 -6.39213,14.14985 -9.56446,21.23633 13.91161,8.8947 27.88561,17.69555 41.69344,26.74982 7.59734,5.91427 11.52226,15.95035 10.49293,25.46146 -0.45966,14.11482 -0.77289,28.22114 -1.46762,42.30434 -1.20604,9.5683 -7.87483,18.04948 -16.59132,22.00951 -12.68129,7.03859 -25.35186,14.0958 -38.02196,21.15456 2.73652,7.26438 5.48681,14.52306 8.25,21.77734 15.89996,-3.48492 31.7775,-7.04726 47.69495,-10.38335 9.61459,-1.29222 19.62579,2.98226 25.67615,10.49663 9.66229,10.3345 19.46292,20.54434 28.9475,31.0418 5.89271,7.62916 7.18224,18.35141 3.78882,27.30781 -4.04121,14.06678 -8.07917,28.13342 -12.10351,42.20508 7.07559,3.20491 14.15221,6.40505 21.25,9.56055 8.84504,-13.86458 17.61191,-27.78106 26.61416,-41.54376 5.87102,-7.68635 15.94932,-11.67262 25.50107,-10.6789 12.55349,0.42029 25.0774,0.7097 37.60238,1.27235 2.71791,0.16526 5.48302,0.0794 8.1195,0.86693 8.24592,2.1714 15.23941,8.32095 18.74854,16.05557 7.01883,12.6413 14.0269,25.28723 21.08427,37.90671 7.26241,-2.73893 14.51939,-5.48899 21.77344,-8.25 -3.47195,-15.88505 -7.03279,-31.74247 -10.35661,-47.64018 -1.31898,-9.45944 2.78906,-19.32885 10.08988,-25.4007 10.40712,-9.6679 20.63575,-19.53337 31.19065,-29.04079 7.32301,-5.90613 17.72179,-7.35415 26.55669,-4.36081 10.16445,3.03794 20.38734,5.87306 30.57668,8.82521 4.201,1.20298 8.4013,2.40844 12.60286,3.60946 3.20502,-7.07583 6.40287,-14.15377 9.5625,-21.25 -13.85992,-8.861 -27.78324,-17.62614 -41.53794,-26.64925 -7.67881,-5.82113 -11.64074,-15.86482 -10.65821,-25.37453 0.42848,-13.18492 0.72082,-26.38296 1.33384,-39.52921 0.0597,-2.09314 0.17394,-4.19738 0.76556,-6.2196 2.15291,-8.2768 8.32116,-15.30636 16.08848,-18.8072 12.63661,-7.01463 25.2725,-14.02157 37.88523,-21.07841 -2.74076,-7.26297 -5.49085,-14.52191 -8.26172,-21.77344 -15.94758,3.48611 -31.9007,7.06855 -47.85906,10.38884 -9.58059,1.24735 -19.52023,-3.05059 -25.53938,-10.53337 -9.67218,-10.34797 -19.47462,-20.57929 -28.9642,-31.09521 -5.85201,-7.63227 -7.0996,-18.32181 -3.73111,-27.25831 4.03473,-14.05137 8.06758,-28.10327 12.10351,-42.1543 -7.07341,-3.19995 -14.14339,-6.40442 -21.23632,-9.56054 -8.86111,13.85127 -17.63384,27.76095 -26.63949,41.51841 -5.74428,7.56482 -15.57997,11.56232 -24.97609,10.71466 -14.18361,-0.49286 -28.35973,-0.80149 -42.51333,-1.48503 -9.61695,-1.03469 -18.23984,-7.63679 -22.25195,-16.36328 -7.08201,-12.76292 -14.17917,-25.51621 -21.28907,-38.26367 -0.6608,0.24805 -1.32161,0.4961 -1.98242,0.74414 z"/>
        <path id="circle13" style="fill:#ccb98f;fill-opacity:1;stroke:none;stroke-width:16.1744;stroke-linecap:square;stroke-linejoin:round;stroke-dasharray:none;stroke-opacity:1" inkscape:label="path13" d="m 508.83008,543.69531 c -16.43961,0.16962 -32.46304,9.63888 -40.43773,24.03343 -7.4255,13.02762 -8.20752,29.66995 -1.77487,43.24983 5.76293,12.48031 17.1595,22.29409 30.48604,25.81049 12.96894,3.56802 27.46674,1.3717 38.64727,-6.16289 10.88489,-7.1687 18.65927,-18.97818 20.65134,-31.88776 2.04673,-12.45054 -1.05091,-25.71345 -8.65348,-35.81789 -2.15498,-2.92095 -4.65978,-5.57882 -7.42053,-7.93419 -0.25992,-0.20128 -0.85659,-0.72014 -1.16969,-0.9565 -6.87145,-5.51069 -15.30556,-9.04319 -24.06477,-10.01129 -2.07782,-0.24432 -4.17163,-0.35102 -6.26358,-0.32323 z"/>
        <circle style="fill:#1f0b26;fill-opacity:1;stroke:none;stroke-width:16.1744;stroke-linecap:square;stroke-linejoin:round;stroke-dasharray:none;stroke-opacity:1" id="path13" cx="509.63483" cy="591.08313" r="30.200651" inkscape:label="path13"/>
      </g>
      <g id="g28" inkscape:label="medium gear" transform="matrix(0.1327697,-0.02149112,0.02149112,0.1327697,-31.331457,-22.331986)" style="stroke-width:1.35687">
        <path id="path25" style="display:inline;fill:#1f0b26;fill-opacity:1;stroke:none;stroke-width:27.1371;stroke-dasharray:none;stroke-opacity:1" class="st0" d="m 449.08594,353.48633 c -6.26498,-1.6e-4 -12.10137,2.56569 -17.8494,4.75215 -9.10476,3.48623 -18.29747,6.76374 -27.29785,10.5363 -11.58512,5.78737 -18.82299,19.24056 -17.11287,32.09945 1.10256,6.56073 2.78689,13.00658 4.12054,19.5225 2.06215,9.4576 4.1243,18.9152 6.18645,28.3728 -7.53658,7.07073 -15.06102,14.14692 -22.61719,21.18164 -15.5074,-4.44948 -30.99119,-8.98463 -46.53725,-13.29237 -12.25243,-2.79618 -25.85137,2.68034 -32.87196,13.07634 -2.62362,3.98116 -4.34157,8.45987 -6.32187,12.77503 -3.86778,8.66913 -7.97915,17.23584 -11.52324,26.0443 -4.11371,12.43782 0.49186,27.26172 11.0814,35.0254 5.77792,3.91845 11.72835,7.574 17.59252,11.36119 7.84395,5.00257 15.67754,10.02113 23.514,15.0355 -0.33179,10.32744 -0.64152,20.6556 -0.99219,30.98242 -13.98539,7.78335 -28.01702,15.48945 -41.93345,23.39003 -11.09335,6.97734 -16.85878,21.39264 -13.60183,34.09137 1.25035,4.78073 3.27264,9.30773 4.95898,13.94181 3.03674,7.9301 5.87363,15.94135 9.18167,23.76421 2.46548,5.48595 6.80591,10.01573 11.88682,13.17001 6.9147,4.27189 15.50807,5.95552 23.45911,4.0412 8.46306,-1.78157 16.84925,-3.69772 25.30274,-5.521 6.52961,-1.43382 13.05612,-2.84894 19.59166,-4.27411 7.07567,7.52721 14.13935,15.06345 21.19922,22.60547 -4.38402,15.39275 -8.89154,30.75048 -13.18486,46.16805 -3.13809,12.80187 2.87828,27.24737 14.17178,34.04113 4.89043,2.88788 10.24771,4.84023 15.36113,7.27919 7.42346,3.32705 14.77911,6.82499 22.33698,9.83695 12.60861,4.14066 27.63786,-0.71387 35.28694,-11.59584 4.26553,-6.33698 8.23524,-12.86497 12.40037,-19.26823 4.55362,-7.12771 9.10724,-14.25542 13.66087,-21.38313 10.32504,0.3345 20.65079,0.64851 30.97461,1.01953 7.66003,13.74437 15.25473,27.52647 22.97015,41.23908 4.69541,7.99646 13.26688,13.38801 22.36378,14.81219 5.10708,0.83683 10.40552,0.30508 15.26635,-1.46078 4.91676,-1.6642 9.70429,-3.68119 14.58631,-5.44166 7.10375,-2.72882 14.3071,-5.22756 21.25266,-8.34616 11.41858,-6.01806 18.37691,-19.56154 16.40993,-32.34845 -1.31168,-7.07655 -3.05584,-14.06511 -4.51864,-21.11111 -1.90576,-8.73677 -3.81151,-17.47353 -5.71726,-26.21029 7.54094,-7.07493 15.08295,-14.13398 22.63476,-21.19727 15.46361,4.43878 30.90971,8.94338 46.40434,13.26943 12.64956,2.96931 26.79863,-2.95158 33.61616,-14.00127 2.44449,-4.03542 4.15358,-8.45213 6.12013,-12.72714 3.44163,-7.66399 7.05828,-15.35747 10.30897,-23.1471 3.27931,-7.56816 2.91176,-16.43224 -0.21687,-23.98574 -2.51787,-6.10279 -6.96654,-11.42079 -12.66074,-14.79398 -12.81741,-8.24814 -25.67392,-16.42896 -38.50558,-24.65521 0.33281,-10.32149 0.64646,-20.64359 0.98633,-30.96485 14.00514,-7.78994 28.05529,-15.50124 41.99286,-23.40984 10.64815,-6.73854 16.36021,-20.31162 13.86186,-32.64595 -0.6219,-3.27183 -1.882,-6.26558 -3.00881,-9.37742 -3.34387,-8.58458 -6.43932,-17.2649 -9.85037,-25.82287 -1.12804,-2.70064 -2.11513,-5.49646 -3.83621,-7.89403 -6.6804,-9.90904 -19.27254,-15.62292 -31.12222,-13.63114 -10.6906,2.18209 -21.32098,4.64666 -31.99117,6.9266 -4.97495,1.08436 -9.9499,2.16873 -14.92485,3.25309 -7.0687,-7.54207 -14.13869,-15.06909 -21.17969,-22.63672 4.4494,-15.4966 8.97497,-30.97278 13.29022,-46.50604 2.94365,-12.84455 -3.22155,-27.211 -14.61179,-33.86166 -4.48456,-2.60487 -9.34721,-4.38749 -14.00406,-6.61154 -7.58286,-3.39517 -15.09431,-6.96034 -22.79923,-10.07258 -8.5855,-3.07153 -18.44438,-1.83678 -26.28139,2.71002 -4.58316,2.64301 -8.46454,6.47512 -11.14052,11.04178 -8.19546,12.73014 -16.29978,25.51768 -24.4962,38.24729 -10.32093,-0.33247 -20.64267,-0.63982 -30.96289,-0.99414 -7.79123,-14.01288 -15.50864,-28.06788 -23.41822,-42.01324 -5.79692,-9.06264 -16.51114,-14.64775 -27.24193,-14.41059 z"/>
        <path id="path26" style="display:inline;fill:#ccb98f;fill-opacity:1;stroke:none;stroke-width:27.1371;stroke-dasharray:none;stroke-opacity:1" class="st0" d="m 449.33203,374.23242 c -2.84453,0.0508 -5.38376,1.47868 -8.01939,2.36936 -9.10761,3.46028 -18.23739,6.8653 -27.3312,10.35998 -4.40184,1.87658 -7.20208,6.81471 -6.56881,11.55509 0.36919,2.1459 0.94607,4.25508 1.37284,6.39253 3.32357,15.18335 6.66054,30.36582 9.97625,45.5496 0.56893,3.70362 -0.93407,7.59964 -3.79673,10.00647 -10.246,9.60765 -20.46192,19.24824 -30.72671,28.83533 -2.95696,2.53473 -7.27863,3.22953 -10.91529,1.88006 -16.11964,-4.641 -32.25133,-9.24346 -48.36345,-13.90852 -4.49172,-1.58989 -9.8699,0.13152 -12.61685,4.02083 -1.36042,1.93565 -2.0805,4.22577 -3.12184,6.3345 -3.98111,8.8576 -8.01783,17.69155 -11.9643,26.56388 -1.7863,4.44067 -0.28878,9.92459 3.52314,12.82532 1.83917,1.27484 3.78515,2.3962 5.65293,3.63272 13.17157,8.41585 26.36297,16.80531 39.52246,25.23715 3.04355,2.24578 4.71878,6.11157 4.37091,9.86763 -0.44483,13.98361 -0.84279,27.96942 -1.3169,41.95166 -0.28096,3.91673 -2.86138,7.50458 -6.42364,9.12334 -14.92382,8.29578 -29.85027,16.59437 -44.77295,24.88745 -3.93149,2.52104 -5.91012,7.64937 -4.68167,12.15644 0.86921,2.76291 2.02292,5.43104 3.00606,8.15585 3.12698,8.22676 6.19803,16.47601 9.35995,24.68873 1.87312,4.41941 6.83144,7.23562 11.58626,6.58502 2.26694,-0.41462 4.50272,-1.00566 6.76344,-1.46499 15.02547,-3.29327 30.04839,-6.60882 45.07534,-9.88863 3.72985,-0.59139 7.66272,0.91274 10.09065,3.79653 9.58187,10.21043 19.19997,20.3882 28.75921,30.61903 2.60092,2.97369 3.33959,7.3638 1.9599,11.05247 -4.64657,16.13687 -9.24965,32.28735 -13.92339,48.41573 -1.54786,4.48419 0.17023,9.82858 4.04763,12.56425 1.93396,1.34797 4.21238,2.07029 6.31471,3.1066 8.85283,3.9803 17.68369,8.01227 26.55021,11.96038 4.34531,1.75962 9.68305,0.35741 12.63945,-3.2704 1.21533,-1.57365 2.14076,-3.34912 3.25952,-4.99248 8.60537,-13.47412 17.18491,-26.96753 25.80601,-40.42985 2.25106,-3.0483 6.11911,-4.72361 9.88129,-4.39787 14.01127,0.45383 28.02502,0.85888 42.03473,1.34319 3.89939,0.30387 7.45146,2.88783 9.06559,6.43218 8.28415,14.917 16.57585,29.83373 24.85433,44.75141 2.54266,3.97917 7.76017,5.96465 12.30078,4.65039 3.72708,-1.2832 7.38377,-2.77101 11.08334,-4.13408 7.2138,-2.74203 14.44978,-5.42896 21.64978,-8.20524 4.33168,-1.85544 7.12352,-6.67086 6.57986,-11.35184 -0.28347,-1.99211 -0.86798,-3.93025 -1.24619,-5.90734 -3.3756,-15.41606 -6.77233,-30.82977 -10.13515,-46.2472 -0.56395,-3.74553 0.98932,-7.66286 3.88721,-10.08272 10.20648,-9.56892 20.38115,-19.17317 30.60749,-28.72002 2.95124,-2.54576 7.27415,-3.28589 10.92214,-1.93697 16.13071,4.64343 32.2736,9.24813 48.3967,13.91574 4.4981,1.61351 9.89155,-0.12825 12.63719,-4.02889 1.3647,-1.96342 2.09741,-4.27441 3.14883,-6.40696 3.96401,-8.81724 7.97969,-17.61249 11.91153,-26.44341 1.75934,-4.34399 0.37499,-9.68805 -3.25512,-12.64688 -1.51446,-1.18528 -3.23878,-2.06911 -4.82464,-3.1556 -13.52834,-8.64451 -27.06802,-17.27512 -40.58953,-25.92789 -3.02781,-2.21759 -4.70601,-6.04347 -4.39158,-9.77158 0.44586,-14.01628 0.84485,-28.03475 1.31998,-42.04966 0.26998,-3.89821 2.81827,-7.49304 6.37339,-9.09619 14.93961,-8.30017 29.88431,-16.5988 44.82125,-24.89897 3.94665,-2.5385 5.93094,-7.7076 4.65616,-12.22972 -1.03703,-3.13504 -2.31709,-6.1876 -3.44987,-9.29008 -2.98296,-7.84052 -5.90949,-15.7037 -8.9276,-23.53011 -1.86882,-4.36067 -6.74446,-7.15624 -11.45186,-6.55505 -2.01235,0.33028 -3.98292,0.89138 -5.98609,1.28332 -15.05482,3.31096 -30.12091,6.5746 -45.16867,9.91516 -3.93993,0.96277 -8.29087,-0.53063 -10.89329,-3.62275 -9.60901,-10.25365 -19.256,-20.47305 -28.84128,-30.74812 -2.53593,-2.9808 -3.21878,-7.31993 -1.85853,-10.97192 4.63437,-16.08778 9.23102,-32.18728 13.88895,-48.26776 1.56997,-4.43052 -0.0517,-9.73769 -3.84301,-12.5206 -1.93169,-1.43172 -4.26861,-2.14545 -6.40568,-3.20399 -8.88122,-3.99216 -17.74047,-8.03599 -26.63536,-11.99599 -4.33944,-1.76069 -9.68149,-0.37365 -12.63334,3.2569 -1.23352,1.60758 -2.181,3.41413 -3.32086,5.08931 -8.58701,13.43974 -17.16328,26.88901 -25.75662,40.32304 -2.23149,3.06208 -6.10499,4.73666 -9.86373,4.39631 -13.99461,-0.44587 -27.99167,-0.84111 -41.98475,-1.31858 -3.89175,-0.288 -7.46065,-2.8435 -9.08068,-6.37952 -8.29769,-14.939 -16.60322,-29.87756 -24.89506,-44.81735 -2.07868,-3.20857 -5.85784,-5.16157 -9.67578,-5.03516 z"/>
        <path id="path27" style="display:inline;fill:#5b899a;fill-opacity:1;stroke:none;stroke-width:27.1371;stroke-dasharray:none;stroke-opacity:1" class="st0" d="m 437.05469,402.18164 c -1.82099,0.69555 -3.64583,1.38126 -5.46485,2.08203 3.18929,14.63866 6.4709,29.2589 9.48438,43.9336 1.40365,11.32119 -3.63552,23.03743 -12.43815,30.19538 -10.41742,9.73092 -20.70721,19.60143 -31.30404,29.13665 -9.04264,6.94486 -21.69346,8.54309 -32.32226,4.59179 -12.4642,-3.57617 -24.92839,-7.15234 -37.39258,-10.72851 -1.89345,4.18802 -3.78115,8.37862 -5.66211,12.57226 12.75184,8.15272 25.56564,16.2117 38.1914,24.55664 8.98807,7.03257 13.69817,18.89394 12.52149,30.1836 -0.47032,14.21564 -0.76172,28.44084 -1.51172,42.64453 -1.45932,11.28931 -9.23881,21.35883 -19.51367,26.10742 -11.24024,6.25261 -22.48047,12.50521 -33.7207,18.75781 1.62955,4.30078 3.25911,8.60157 4.88867,12.90235 14.53125,-3.18044 29.04378,-6.449 43.61133,-9.45508 11.4286,-1.51194 23.31877,3.53064 30.54307,12.43812 9.72224,10.4052 19.60457,20.67172 29.11903,31.28063 6.95473,9.05345 8.55414,21.72558 4.58204,32.36328 -3.57292,12.45833 -7.14584,24.91667 -10.71875,37.375 4.18911,1.89472 8.38151,3.78209 12.57812,5.66016 8.09964,-12.6898 16.11775,-25.43312 24.39649,-38.00586 6.97049,-9.07324 18.84165,-13.87293 30.16406,-12.75 14.10489,0.48132 28.21982,0.75799 42.31258,1.52759 6.9243,0.65131 13.45688,3.92341 18.56458,8.57327 3.59577,3.26474 6.4174,7.31653 8.4752,11.70198 6.10439,10.99255 12.19828,21.99008 18.33123,32.96669 4.30143,-1.62956 8.60287,-3.25912 12.9043,-4.88867 -3.17083,-14.50389 -6.42496,-28.99075 -9.42969,-43.5293 -1.54051,-11.26972 3.31739,-23.02678 12.01066,-30.27326 10.54367,-9.77795 20.86642,-19.79786 31.60786,-29.35972 8.73789,-6.86263 20.99006,-8.57605 31.4403,-5.03212 12.76209,3.76961 25.5848,7.37173 38.36306,11.05377 1.89477,-4.19114 3.78356,-8.38466 5.66015,-12.58398 -12.70709,-8.12681 -25.48776,-16.15141 -38.06673,-24.47998 -9.01912,-6.92595 -13.77147,-18.72988 -12.65983,-29.97901 0.47171,-14.15872 0.73773,-28.328 1.50438,-42.47418 0.87058,-8.51159 5.52831,-16.41411 12.07469,-21.82769 2.52011,-2.12396 5.38811,-3.78094 8.34392,-5.21401 10.94216,-6.07837 21.89116,-12.14447 32.81724,-18.2517 -1.62638,-4.30429 -3.25938,-8.60601 -4.89648,-12.90624 -14.59271,3.18752 -29.16735,6.46811 -43.79883,9.46679 -11.39679,1.46092 -23.21894,-3.6133 -30.40438,-12.49869 -9.73207,-10.42164 -19.619,-20.704 -29.13077,-31.32748 -6.90882,-9.06355 -8.45763,-21.70197 -4.50586,-32.32031 3.57031,-12.43425 7.14062,-24.86849 10.71093,-37.30274 -4.18627,-1.89401 -8.37458,-3.7828 -12.56836,-5.66015 -8.10664,12.67407 -16.13515,25.40054 -24.40625,37.96679 -6.87187,9.00743 -18.58735,13.8085 -29.80502,12.79366 -14.29924,-0.50168 -28.61003,-0.78124 -42.89764,-1.53911 -11.32294,-1.32642 -21.488,-9.05476 -26.27195,-19.33267 -6.28159,-11.30796 -12.5696,-22.61197 -18.86523,-33.91211 -2.48177,0.93359 -4.96354,1.86719 -7.44531,2.80078 z"/>
        <path id="path28" style="fill:#ccb98f;fill-opacity:1;stroke:none;stroke-width:20.353;stroke-linecap:square;stroke-linejoin:round;stroke-dasharray:none;stroke-opacity:1" inkscape:label="path13" d="m 508.75391,540.95117 c -17.37399,0.19165 -34.29557,10.20057 -42.73829,25.40235 -8.01039,14.02788 -8.70994,32.02451 -1.5294,46.53204 6.36506,13.22535 18.77251,23.45575 33.0851,26.86258 13.7767,3.4269 29.0102,0.74706 40.63033,-7.4648 11.41097,-7.89111 19.37252,-20.67591 21.11363,-34.47044 1.83624,-13.45705 -1.99854,-27.64585 -10.63381,-38.16824 -7.73193,-9.63376 -19.12282,-16.2661 -31.3508,-18.09852 -2.83623,-0.42999 -5.70838,-0.62871 -8.57676,-0.59497 z"/>
        <circle style="fill:#1f0b26;fill-opacity:1;stroke:none;stroke-width:20.353;stroke-linecap:square;stroke-linejoin:round;stroke-dasharray:none;stroke-opacity:1" id="circle28" cx="509.63483" cy="591.08313" r="30.200651" inkscape:label="path13"/>
      </g>
      <g id="g33" inkscape:label="small gear" transform="matrix(0.07114025,0.03165004,-0.03165004,0.07114025,40.590845,22.002299)" style="stroke-width:2.34381">
        <path id="path29" style="display:inline;fill:#1f0b26;fill-opacity:1;stroke:none;stroke-width:46.8758;stroke-dasharray:none;stroke-opacity:1" class="st0" d="m 449.04102,343.64258 c -6.92619,-0.0195 -13.54813,2.34856 -19.90821,4.85742 -9.52459,3.68041 -19.32572,7.1378 -28.79898,11.13432 -4.05066,1.80226 -7.69089,4.46775 -10.86526,7.54794 -9.04601,8.84205 -14.02286,21.90924 -12.43611,34.53271 0.69065,4.91325 1.89786,9.73508 2.93742,14.58238 2.14725,9.69838 4.22488,19.41102 6.35434,29.11281 -4.8097,4.51888 -9.62572,9.031 -14.44922,13.53515 -13.99644,-4.01312 -27.96984,-8.1146 -42.01562,-11.94922 -14.6906,-3.25194 -30.85016,2.46766 -40.45882,13.99071 -4.62645,5.41949 -7.16064,12.16347 -10.07465,18.56702 -3.89428,8.71071 -8.05158,17.31473 -11.5056,26.21376 -4.576,14.14597 -0.6437,30.5607 9.61362,41.27369 3.04162,3.29349 6.83443,5.72985 10.59105,8.11715 10.45364,6.72243 20.942,13.39 31.40666,20.09549 -0.21159,6.60286 -0.42318,13.20573 -0.63476,19.80859 -12.63852,7.04226 -25.33633,13.98347 -37.88013,21.19212 -13.39052,8.59857 -20.79492,25.4486 -18.24698,41.13291 1.14084,6.96631 4.20612,13.38619 6.57554,19.97991 2.89161,7.58703 5.67153,15.41027 8.91598,22.94113 4.64188,10.2192 13.92945,18.00412 24.50755,21.53484 7.40829,2.49525 15.53271,2.81504 23.10497,0.85733 12.73841,-2.74555 25.4553,-5.57203 38.1715,-8.32965 4.51823,4.81771 9.03646,9.63542 13.55469,14.45313 -3.95269,13.84976 -8.01586,27.68665 -11.83973,41.58792 -3.3647,14.32381 1.8681,30.14025 12.75965,39.94724 4.85104,4.45185 10.91343,7.20416 16.88931,9.79194 9.58481,4.23726 19.02119,8.82676 28.76889,12.68462 14.29882,4.72229 30.96951,0.70559 41.73267,-9.77155 4.25318,-4.01099 7.07457,-9.19413 10.26322,-14.02473 5.90161,-9.26559 11.82646,-18.51634 17.74044,-27.77404 6.59857,0.20838 13.19688,0.42416 19.79493,0.64844 6.92687,12.43762 13.78971,24.91215 20.82184,37.29007 8.43925,13.73731 25.50826,21.40074 41.39105,18.86228 5.912,-0.89893 11.40932,-3.37106 16.98042,-5.42235 8.89521,-3.43547 17.92847,-6.53498 26.66324,-10.37166 5.95658,-2.80179 11.04428,-7.29296 14.92469,-12.58099 6.34794,-8.72221 9.41338,-19.96211 7.64041,-30.66679 -1.3864,-7.69368 -3.29529,-15.27983 -4.88812,-22.93146 -1.398,-6.44498 -2.80706,-12.88732 -4.21127,-19.33144 4.82422,-4.51758 9.64844,-9.03516 14.47266,-13.55274 13.96905,4.00053 27.9133,8.09378 41.92601,11.93648 14.40416,3.23449 30.2453,-2.18332 39.92982,-13.25868 4.63073,-5.16026 7.31311,-11.64118 10.06604,-17.91022 3.96993,-8.84333 8.14443,-17.60143 11.75781,-26.59961 4.87194,-13.55601 1.65511,-29.46113 -7.59765,-40.40625 -3.09364,-3.72427 -6.93125,-6.75822 -11.07444,-9.23559 -10.85327,-6.95687 -21.70872,-13.90819 -32.57009,-20.8523 0.20963,-6.59635 0.41927,-13.19271 0.6289,-19.78906 12.60376,-7.00976 25.25002,-13.94552 37.76953,-21.10352 12.07484,-7.70295 19.32803,-22.09361 18.82813,-36.34961 -0.14093,-5.32383 -1.57127,-10.5134 -3.4909,-15.45065 -3.36785,-8.70349 -6.53512,-17.48522 -9.95387,-26.16973 -1.6019,-3.96356 -3.07036,-8.03802 -5.54571,-11.5638 -7.50008,-11.05878 -20.55314,-18.10406 -33.9187,-18.27084 -3.06589,-0.0462 -6.13883,0.27206 -9.12598,0.96674 -0.58798,0.11985 -1.50062,0.31669 -2.21313,0.46606 -12.22188,2.59738 -24.3691,5.32838 -36.56161,7.95675 -0.6578,0.27375 -1.21003,0.20811 -1.57901,-0.44665 -4.31358,-4.59689 -8.61801,-9.20197 -12.92164,-13.80819 4.00432,-13.95424 8.08047,-27.88888 11.92774,-41.88672 3.19512,-14.23978 -2.04072,-29.87253 -12.83594,-39.61328 -4.75312,-4.37161 -10.68338,-7.10893 -16.55223,-9.63667 -9.56077,-4.22433 -18.96694,-8.80292 -28.68605,-12.66411 -13.78707,-4.79986 -29.91855,-1.32793 -40.7928,8.32324 -3.53395,3.06715 -6.37158,6.83885 -8.75994,10.84278 -6.89131,10.72159 -13.73201,21.47559 -20.61718,32.20117 -6.59831,-0.21159 -13.19662,-0.42318 -19.79493,-0.63477 -7.01877,-12.61889 -13.96128,-25.28235 -21.1289,-37.8164 -7.5918,-11.77895 -21.48989,-19.0588 -35.47656,-18.79297 z"/>
        <path id="path30" style="display:inline;fill:#ccb98f;fill-opacity:1;stroke:none;stroke-width:46.8758;stroke-dasharray:none;stroke-opacity:1" class="st0" d="m 428.88281,383.64648 c -6.91977,2.61936 -13.89347,5.26646 -20.83398,7.89649 4.24347,19.35253 8.57546,38.68635 12.66768,58.07134 0.91755,3.55097 -0.21465,7.37594 -2.30851,10.30195 -1.3778,2.02083 -3.42903,3.39863 -5.1294,5.11561 -9.5377,8.94464 -19.02737,17.94111 -28.68094,26.7611 -3.72351,2.46954 -8.58705,2.77645 -12.74222,1.29181 -3.2505,-1.07206 -6.57811,-1.91284 -9.85929,-2.893 -15.19794,-4.36536 -30.39587,-8.73072 -45.59381,-13.09608 -6.59455,14.54025 -13.1785,29.09398 -19.66692,43.64841 -0.36611,0.58516 -0.55636,1.11747 0.26563,1.34563 16.75477,10.68344 33.55481,21.2981 50.2222,32.11641 3.94324,2.71889 5.70871,7.77815 5.30214,12.43252 -0.4972,12.37217 -0.75771,24.80311 -1.25412,37.22571 -0.17104,2.77907 0.0756,5.70628 -1.20047,8.27829 -1.50004,3.37541 -4.48748,5.85372 -7.77675,7.39957 -7.90131,4.24549 -15.68336,8.70639 -23.53794,13.03755 -8.65304,4.81227 -17.29923,9.6364 -25.94752,14.45732 5.74285,15.21887 11.49525,30.43418 17.34766,45.61133 19.18764,-4.21554 38.35874,-8.50824 57.57551,-12.58823 2.03401,-0.48684 4.17368,-0.54081 6.19223,0.0534 3.25547,0.86488 6.00221,3.03432 8.09665,5.61536 9.30169,10.01504 18.78922,19.85972 27.9636,29.99033 2.88638,3.68941 3.18083,8.87808 1.62998,13.18298 -1.41772,4.5741 -2.65372,9.20377 -4.00489,13.7985 -3.98501,13.87577 -7.97002,27.75154 -11.95503,41.62731 13.52214,6.13815 26.98972,12.22958 40.5482,18.27334 1.33679,0.59574 2.67359,1.19147 4.01039,1.78721 10.3996,-16.29553 20.71338,-32.64186 31.22848,-48.86371 1.0536,-1.59923 2.02193,-3.31275 3.6059,-4.45783 3.07413,-2.47633 7.1945,-3.24605 11.05199,-2.85899 12.48606,0.47857 25.09838,0.78399 37.64281,1.30349 2.01862,0.12161 4.10265,-0.0293 6.01361,0.75801 3.72593,1.31713 6.57333,4.4209 8.2184,7.94409 9.13347,16.60384 18.3964,33.1352 27.61381,49.69252 15.21324,-5.74235 30.42782,-11.48161 45.60742,-17.3125 -4.28578,-19.52158 -8.63455,-39.02874 -12.78125,-58.58008 -0.84046,-4.44714 1.20675,-9.0407 4.46412,-12.0346 3.72583,-3.32999 7.30383,-6.82647 10.96517,-10.22893 6.91711,-6.50081 13.82134,-13.02501 20.86578,-19.38306 3.92287,-2.61713 9.11406,-2.79345 13.41392,-1.0331 18.25651,5.2474 36.51302,10.4948 54.76953,15.74219 6.5832,-14.58092 13.18612,-29.16061 19.69376,-43.74199 0.47187,-0.61654 0.3458,-1.05386 -0.39006,-1.30839 -16.98677,-10.84598 -34.01665,-21.62427 -50.92284,-32.5961 -3.34435,-2.93581 -4.89693,-7.53925 -4.53448,-11.91832 0.24437,-3.60954 0.24669,-7.23598 0.39453,-10.85229 0.33905,-10.39752 0.59875,-20.79895 1.08526,-31.19033 0.54484,-4.63737 3.95394,-8.52102 8.07575,-10.48245 7.17688,-3.82805 14.23159,-7.87934 21.35667,-11.80227 9.61414,-5.34906 19.19637,-10.68865 28.80195,-16.05512 -5.75615,-15.21202 -11.4982,-30.42933 -17.32812,-45.61329 -19.845,4.34997 -39.6637,8.81169 -59.55078,12.9668 -4.52796,0.3281 -8.94291,-1.95849 -11.77629,-5.41327 -9.58598,-10.34792 -19.33914,-20.54425 -28.8409,-30.97149 -2.39878,-3.57044 -2.79306,-8.21423 -1.52344,-12.26954 1.17424,-3.44015 2.0491,-6.97812 3.0937,-10.46079 4.35939,-15.17517 8.71879,-30.35035 13.07818,-45.52553 -14.83589,-6.70785 -29.67589,-13.40588 -44.52344,-20.08789 -10.58114,16.57024 -21.10512,33.17695 -31.78119,49.68618 -0.84084,1.40873 -1.81898,2.75232 -3.16337,3.7241 -3.03265,2.38119 -7.05106,3.15972 -10.82824,2.7729 -12.38651,-0.45937 -24.85545,-0.73191 -37.29361,-1.2535 -2.52395,-0.0972 -5.17046,0.002 -7.48382,-1.17799 -3.35205,-1.51979 -5.84686,-4.48584 -7.35979,-7.78464 -5.15531,-9.435 -10.43961,-18.79884 -15.64628,-28.20564 -3.93892,-7.08128 -7.87783,-14.16256 -11.81675,-21.24384 -8.27539,3.125 -16.55078,6.25 -24.82617,9.375 z"/>
        <path sodipodi:type="star" style="fill:#416b86;fill-opacity:1;stroke:none;stroke-width:22.1489;stroke-linecap:square;stroke-linejoin:round;stroke-dasharray:none;stroke-opacity:1" id="path34" inkscape:flatsided="true" sodipodi:sides="8" sodipodi:cx="632.18164" sodipodi:cy="151.98792" sodipodi:r1="87.322235" sodipodi:r2="127.403" sodipodi:arg1="0.83298124" sodipodi:arg2="1.2256803" inkscape:rounded="0.12" inkscape:randomized="0" d="m 690.92093,216.60113 c -5.93433,5.39486 -54.88183,22.99166 -62.89278,22.61018 -8.01095,-0.38147 -55.06488,-22.54976 -60.45973,-28.4841 -5.39485,-5.93434 -22.99165,-54.88184 -22.61018,-62.89279 0.38148,-8.01095 22.54977,-55.064871 28.48411,-60.459724 5.93434,-5.394854 54.88184,-22.991653 62.89278,-22.610179 8.01095,0.381473 55.06488,22.549766 60.45973,28.484104 5.39485,5.934339 22.99165,54.881839 22.61018,62.892789 -0.38147,8.01095 -22.54977,55.06487 -28.48411,60.45972 z" transform="matrix(0.6277402,1.4579019,-1.4579019,0.6277402,334.37247,-425.98463)"/>
        <path id="path32" style="fill:#ccb98f;fill-opacity:1;stroke:none;stroke-width:35.1571;stroke-linecap:square;stroke-linejoin:round;stroke-dasharray:none;stroke-opacity:1" inkscape:label="path13" d="m 508.44531,528.93555 c -20.28332,0.27237 -40.06544,11.28761 -51.00136,28.36869 -6.11487,9.41676 -9.52609,20.52581 -9.89254,31.73878 -0.38601,10.54785 1.94813,21.19594 6.85417,30.55185 8.25405,16.04226 23.77882,28.24657 41.44865,32.08864 17.50662,4.02844 36.74454,0.0524 51.05049,-10.86717 13.78377,-10.28325 23.04199,-26.4979 24.5841,-43.65603 1.64876,-16.5373 -3.60558,-33.69887 -14.47512,-46.30734 -10.47717,-12.3666 -25.93869,-20.42855 -42.12096,-21.6882 -2.14413,-0.18361 -4.29596,-0.247 -6.44743,-0.22922 z"/>
        <circle style="fill:#1f0b26;fill-opacity:1;stroke:none;stroke-width:35.1571;stroke-linecap:square;stroke-linejoin:round;stroke-dasharray:none;stroke-opacity:1" id="circle32" cx="509.63483" cy="591.08313" r="30.200651" inkscape:label="path13"/>
      </g>
    </g>
  </g>
</svg>
